<svg data-name="Layer 1" xmlns="http://www.w3.org/2000/svg" width="707.185" height="539.367"><path d="M176.68 308.877a6.994 6.994 0 00-2.38-4.8l-11.13-9.7a6.996 6.996 0 00-9.39.17 5.583 5.583 0 00-.48.5l-29.06 33.32-3.18 3.64-48.62 55.75a7.018 7.018 0 00.68 9.88l11.12 9.7a7.013 7.013 0 009.88-.67l26.94-30.89 24.28-27.85 29.63-33.97a6.982 6.982 0 001.71-5.08zM352.94 246.027l-6.76-13.12a7.017 7.017 0 00-9.43-3.01l-55.07 28.39-34.62 17.85-19.65 10.13a6.642 6.642 0 00-1.42.98 6.864 6.864 0 00-2.04 3.11 6.935 6.935 0 00.45 5.34l2.64 5.13 4.12 7.99a6.974 6.974 0 004.09 3.46 7.245 7.245 0 002.15.33 6.897 6.897 0 003.19-.78l23.34-12.03 30.52-15.74 55.48-28.6a7.017 7.017 0 003.01-9.43z" fill="#6c63ff"/><path d="M294.75 284.687l-.3-.63-11.82-24.35a7.034 7.034 0 00-4.05-3.5 6.959 6.959 0 00-5.38.41l-28.84 17.48-19.2 11.64a1.702 1.702 0 00-.4.28c-1.1.99-1.69 3.53-2.17 5.61-.17.72-.31 1.35-.45 1.76-.05.17-.11.35-.15.53a6.972 6.972 0 00.54 4.81l2.36 4.71 4.26 8.48a7.037 7.037 0 006.28 3.87 6.81 6.81 0 003.08-.74l26.86-10.6 26.26-10.37a7.009 7.009 0 003.12-9.39z" fill="#2f2e41"/><circle cx="199.483" cy="193.525" r="53.519" fill="#6c63ff"/><path d="M201.03 407.067a6.962 6.962 0 00-4.45-6.23 6.859 6.859 0 00-2.53-.48h-14.76a7.008 7.008 0 00-7 7v125.01a7.008 7.008 0 007 7h14.76a7.008 7.008 0 007-7v-125.01a1.367 1.367 0 00-.02-.29z" fill="#6c63ff"/><path d="M268.09 462.887a6.959 6.959 0 00-.76-1.35l-25.16-35.2-20.73-28.99h-35.36l2.5 3.49 4.45 6.23 13.79 19.28 29.55 41.33 7.57 10.58a7.002 7.002 0 009.76 1.63l12.01-8.59a7.009 7.009 0 002.38-8.41zm-72.3-101.42a7.011 7.011 0 00-9.77-1.62l-12.01 8.58a7.011 7.011 0 00-1.62 9.77l4.4 6.15h35.36z" fill="#6c63ff"/><path d="M268.32 463.227a4.098 4.098 0 00-.23-.34 9.641 9.641 0 00-3.56-2.96l-13.21-6.57c-3.46-1.72-7.18-1.3-8.29.94l-6.66 13.38-27.39 55.02c-1.12 2.24.79 5.46 4.24 7.18l13.21 6.58a9.712 9.712 0 004.23 1.06c1.86 0 3.41-.69 4.06-2l34.05-68.4a3.963 3.963 0 00-.45-3.89z" fill="#6c63ff"/><path d="M189.21 292.427l-2.22-2.18-1.23-1.23-7.06-6.95a7.034 7.034 0 00-4.41-2c-.19-.01-.37-.02-.56-.02-.42.01-1.06-.05-1.81-.11-2.37-.2-5.33-.46-6.36.6l-13.67 11.82-28.89 24.97a6.94 6.94 0 00-1.94 3.9 6.34 6.34 0 00-.08 1.07 6.012 6.012 0 00.08.95 6.95 6.95 0 002.01 3.99l1.17 1.13 18.86 18.08a7.015 7.015 0 004.96 2.01 6.77 6.77 0 002.37-.43 7.018 7.018 0 002.59-1.68l32.87-39.91 2.15-2.61 1.24-1.5a7.008 7.008 0 00-.07-9.9zM192.358 213.36l-.055-2c3.72-.103 7-.336 9.465-2.137a6.148 6.148 0 002.382-4.528 3.514 3.514 0 00-1.153-2.895c-1.636-1.381-4.27-.934-6.188-.054l-1.655.758 3.173-23.19 1.982.272-2.7 19.726c2.608-.766 5.024-.436 6.679.961a5.471 5.471 0 011.86 4.492 8.133 8.133 0 01-3.2 6.073c-3.167 2.315-7.283 2.43-10.59 2.523zM210.108 181.287h10.771v2h-10.771zM176.108 181.287h10.771v2h-10.771zM194.527 113.347c-5.935-23.79-28.94-42.055-53.589-41.6a56.772 56.772 0 00-33.558 12.168 54.245 54.245 0 00-12.306 13.464c-3.715 5.798-6.048 12.343-7.87 18.95-3.68 13.347-5.414 28.451-14.752 39.351a41.015 41.015 0 01-31.033 13.962 38.318 38.318 0 01-30.296-15.644c-7.029-9.371-10.49-22.333-6.429-33.643 1.993-5.55 6.278-10.793 12.407-11.719a14.462 14.462 0 0114.318 6.854c2.756 4.836 1.875 11.289-1.578 15.554-3.637 4.493-9.715 5.737-15.075 3.932a13.698 13.698 0 01-6.376-4.523c-1.199-1.514-3.323.608-2.137 2.107a17.341 17.341 0 0015.84 6.051 16.19 16.19 0 0012.9-10.78 16.438 16.438 0 00-3-16.615 17.59 17.59 0 00-16.339-5.353c-6.328 1.34-10.924 6.545-13.309 12.312a34.359 34.359 0 00-1.79 18.85 44.163 44.163 0 0020.215 29.78c10.669 6.551 23.985 7.452 35.69 3.245a43.738 43.738 0 0015.668-9.649 46.894 46.894 0 0010.793-17.225c5.277-13.816 6.05-29.277 13.516-42.264a53.188 53.188 0 0128.93-23.395 49.736 49.736 0 0136.912 1.772 54.31 54.31 0 0126.294 26.106 48.615 48.615 0 013.056 8.729c.468 1.877 3.366 1.098 2.898-.777z" fill="#2f2e41"/><path d="M252.37 306.447q-.615-2.37-1.44-4.65a53.427 53.427 0 00-16.87-23.66q-1.305-1.065-2.7-2.04a53.235 53.235 0 00-15.119-7.406 8.604 8.604 0 00-.021-4.717 9.432 9.432 0 00-9.127-6.627h-13.04a9.458 9.458 0 00-9.153 6.637 8.581 8.581 0 00-.021 4.703 53.53 53.53 0 00-37.818 51.16V423.52c0 7.076 2.69 12.827 6 12.827h95c.04 0 27.07 0 27.11-.021 3.26-.107 5.89-5.816 5.89-12.806 0-23.935-5.288-57.573-15.486-79.226l-11.514-24.447a53.768 53.768 0 00-1.69-13.4z" fill="#2f2e41"/><path d="M145.56 205.847c-6.616 0-12-8.075-12-18s5.384-18 12-18 12 8.075 12 18-5.383 18-12 18zM252.56 205.847c-6.616 0-12-8.075-12-18s5.384-18 12-18 12 8.075 12 18-5.383 18-12 18z" fill="#3f3d56"/><path d="M255.928 203.032a1.501 1.501 0 01-1.421-1.98 58.499 58.499 0 10-112.688-6.575 1.5 1.5 0 01-2.935.62 61.5 61.5 0 11118.465 6.914 1.5 1.5 0 01-1.42 1.02z" fill="#3f3d56"/><path d="M176.597 151.85c-2.119 2.892-1.074 6.79 1.159 9.285 2.905 3.245 7.539 3.45 11.562 2.847 4.514-.676 9.302-2.79 13.872-1.365 3.896 1.215 6.675 4.748 10.722 5.635 3.589.787 7.88-.255 9.139-4.08.604-1.838-2.292-2.626-2.893-.798-.814 2.475-4.329 2.426-6.342 1.74-3.227-1.098-5.713-3.77-8.885-5.047-3.74-1.505-7.796-.825-11.603.032-3.589.808-7.718 2.006-11.293.497-2.645-1.117-4.75-4.635-2.847-7.233 1.142-1.559-1.46-3.057-2.59-1.514z" fill="#2f2e41"/><path d="M320.54 539.347h-216a1 1 0 010-2h216a1 1 0 010 2z" fill="#3f3d56"/><path d="M705.35 232.442H468.02a1.835 1.835 0 110-3.67h237.33a1.835 1.835 0 110 3.67z" fill="#e6e6e6"/><path d="M604.46 131.19h-92.29a19.472 19.472 0 01-19.45-19.45V19.45A19.472 19.472 0 01512.17 0h92.29a19.472 19.472 0 0119.45 19.45v92.29a19.472 19.472 0 01-19.45 19.45z" fill="#6c63ff"/><path d="M661.2 173.99h-92.29a19.472 19.472 0 01-19.45-19.45V62.25a19.472 19.472 0 0119.45-19.45h92.29a19.472 19.472 0 0119.45 19.45v92.29a19.472 19.472 0 01-19.45 19.45z" opacity=".1" style="isolation:isolate"/><path d="M502.06 285.347a1 1 0 01-1-1v-18a1 1 0 012 0v18a1 1 0 01-1 1z" fill="#ccc"/><path d="M583.56 285.347a1 1 0 01-1-1v-18a1 1 0 012 0v18a1 1 0 01-1 1zM590.56 285.347a1 1 0 01-1-1v-18a1 1 0 012 0v18a1 1 0 01-1 1z" fill="#3f3d56"/><path d="M516.74 285.673a2.314 2.314 0 01-1.16-.315l-11.894-8.022a3.069 3.069 0 01-.066-.041 2.267 2.267 0 01-1.06-1.948 2.296 2.296 0 011.16-2.01l11.801-7.964a2.319 2.319 0 013.54 1.972v16.004a2.33 2.33 0 01-2.32 2.324zm-.1-2.01a.306.306 0 00.26-.037.31.31 0 00.16-.277v-16.004a.32.32 0 00-.48-.277l-11.8 7.965c-.199.117-.22.245-.22.314a.31.31 0 00.16.277l.06.037zM670.06 285.347a1 1 0 01-1-1v-18a1 1 0 012 0v18a1 1 0 01-1 1z" fill="#ccc"/><path d="M655.362 285.668a2.272 2.272 0 01-1.141-.31 2.296 2.296 0 01-1.16-2.009v-16.004a2.32 2.32 0 013.48-2.009l11.919 8.039a2.262 2.262 0 011.1 1.972 2.296 2.296 0 01-1.125 1.99L656.6 285.32a2.459 2.459 0 01-1.238.347zm-.301-2.319a.32.32 0 00.48.277l11.845-7.994a.337.337 0 00.175-.284.31.31 0 00-.16-.278l-11.92-8.039a.297.297 0 00-.26.037.31.31 0 00-.16.277z" fill="#ccc"/><circle cx="534.061" cy="230.607" r="12" fill="#3f3d56"/></svg>